<?xml version="1.0" encoding="UTF-8" standalone="no"?>
<svg
   width="1.3666667in"
   height="0.89222276in"
   viewBox="0 0 410 267.66684"
   version="1.1"
   id="svg1"
   sodipodi:docname="butterfly.svg"
   inkscape:version="1.4 (e7c3feb100, 2024-10-09)"
   xmlns:inkscape="http://www.inkscape.org/namespaces/inkscape"
   xmlns:sodipodi="http://sodipodi.sourceforge.net/DTD/sodipodi-0.dtd"
   xmlns="http://www.w3.org/2000/svg"
   xmlns:svg="http://www.w3.org/2000/svg">
  <defs
     id="defs1" />
  <sodipodi:namedview
     id="namedview1"
     pagecolor="#1a1a1a"
     bordercolor="#000000"
     borderopacity="0.25"
     inkscape:showpageshadow="2"
     inkscape:pageopacity="0.0"
     inkscape:pagecheckerboard="0"
     inkscape:deskcolor="#d1d1d1"
     inkscape:document-units="in"
     inkscape:zoom="2.8714704"
     inkscape:cx="39.352661"
     inkscape:cy="24.377755"
     inkscape:window-width="1536"
     inkscape:window-height="864"
     inkscape:window-x="0"
     inkscape:window-y="0"
     inkscape:window-maximized="1"
     inkscape:current-layer="svg1" />
  <path
     id="Selection"
     fill="none"
     stroke="#000000"
     stroke-width="1"
     d="m 58.5,134.50386 c -5.45,-1.59 -11.1,-5.24 -16,-8.2 -12.77,-7.72 -33.82,-22.63 -37.32,-37.800005 -2.8,-12.12 1.71,-25.27 7.07,-36 13.7,-27.4 41.02,-52.3599999 73.25,-51.9999999 19.53,0.22 34.67,11.9599999 49,23.9199999 21.87,18.26 43.97,42 59.31,66.08 7.64,12.000005 7.66,16.480005 11.69,23.000005 7.76,-23.250005 22.67,-41.040005 38.83,-59.000005 11.44,-12.71 23.77,-24.34 37.17,-35 12.77,-10.1599999 26.13,-18.8099999 43,-18.9999999 32.23,-0.36 59.55,24.5999999 73.25,51.9999999 5.36,10.73 9.87,23.88 7.07,36 -3.5,15.170005 -24.55,30.080005 -37.32,37.800005 -4.9,2.96 -10.55,6.61 -16,8.2 2.75,5.81 12.09,14.74 16.72,20 14.73,16.78 41,44.71 41.28,68 0,0 0,7 0,7 -0.07,5.35 -1.09,9.96 -2.86,15 -1.67,4.72 -4.16,10.18 -7.47,13.96 -14.88,17.02 -46.61,5.09 -63.67,-2.38 -15.03,-6.59 -36.07,-21.42 -49,-31.78 -23.3,-18.67 -49.46,-44.08 -66.25,-68.8 -12.24,-18 -11.15,-22.55 -15.75,-30 -9.18,27.53 -27.77,48.77 -48,69 -21.52,21.52 -53.16,48.51 -81,61.14 -17.12,7.76 -49.65,20 -64.67,2.82 -3.31,-3.78 -5.8,-9.24 -7.47,-13.96 -1.77,-5.04 -2.79,-9.65 -2.86,-15 0,0 0,-6 0,-6 0.12,-24.36 25.91,-51.5 41.28,-69 4.63,-5.26 13.97,-14.19 16.72,-20 z M 83.5,6.2138551 c -7.13,0.16 -16.36,1.15 -23,3.75 -9.79,3.8299999 -15.66,9.3399999 -23,16.5299999 -13.46,13.17 -27.53,30.04 -27.99,50.01 -0.07,3.36 -0.1,6.85 1.22,10 4.57,10.94 27.4,24.460005 37.77,30.810005 0,0 13.98,8.63 13.98,8.63 2.01,1.36 4.29,2.89 4.29,5.6 0,2.48 -2.71,6.03 -4.17,7.96 0,0 -14.08,16 -14.08,16 -10.31,11.06 -24.38,27.13 -32.01,40 -4.6,7.77 -8.61,15.8 -8.97,25 -0.46,11.76 4.17,26.6 15.96,31.39 4.44,1.8 9.3,1.66 14,1.61 19.64,-0.23 40.41,-11.71 56,-22.86 26.9,-19.24 49.73,-40.01 71.27,-65.14 0,0 19.85,-25 19.85,-25 3.68,-5.01 8.47,-11.79 9.55,-18 2.39,-13.63 -8.92,-30.360005 -16.39,-41.000005 -15.48,-22.05 -34.28,-43.31 -56.28,-59 -12.76,-9.1 -21.94,-15.4599999 -38,-16.2899999 z m 244,0 c -23.58,0.53 -42.17,18.2699999 -59,32.8699999 -13.2,11.44 -31.94,35.47 -41.66,50.42 -5.48,8.44 -11.68,19.650005 -11.3,30.000005 0.28,7.55 4.82,14.09 9.11,20 0,0 20.58,26 20.58,26 20.92,24.41 44.11,45.73 70.27,64.42 18.34,13.11 37.87,23.85 61,23.58 18.72,-0.22 26.62,-16.11 25.96,-33 -0.84,-21.37 -25.39,-47.73 -39.13,-63 0,0 -15.93,-18 -15.93,-18 -1.46,-1.93 -4.17,-5.48 -4.17,-7.96 0,-2.71 2.28,-4.24 4.29,-5.6 0,0 13.98,-8.63 13.98,-8.63 10.37,-6.35 33.2,-19.870005 37.77,-30.810005 1.32,-3.15 1.29,-6.64 1.22,-10 -0.46,-19.97 -14.53,-36.84 -27.99,-50.01 -7.34,-7.19 -13.21,-12.7 -23,-16.5299999 -6.68,-2.61 -14.87,-3.4 -22,-3.75 z M 87.5,51.153855 c 23.69,-4.89 55.63,30.33 30.99,49.820005 -2.32,1.83 -6.15,4.08 -8.99,4.89 -12.88,3.71 -29.82,-8.490005 -34,-20.360005 -1.53,-4.78 -1.28,-13.09 0,-18 1.77,-7.8 4.26,-13.09 12,-16.35 z m 226,-0.09 c 3.03,-0.51 6.01,-0.85 9,0 11.35,3.65 14.47,21.21 12.67,31.44 -1.96,11.2 -14.8,21.770005 -25.67,23.670005 -12.22,2.14 -26.03,-8.110005 -26.9,-20.670005 -1.18,-16.78 15.89,-31 30.9,-34.44 z m -221.96,16.04 c -6.89,4.02 -8.12,15.74 -3.81,22.27 3.68,5.6 16.34,10.02 22.73,7.53 7.12,-2.78 7.78,-12.6 4.63,-18.4 -4.48,-8.22 -14.33,-13.4 -23.55,-11.4 z m 218.96,-0.21 c -7.49,2.23 -14.3,6.89 -16.89,14.61 -1.75,5.22 0.4,13.24 5.93,15.44 2.35,0.88 7.49,0.6 9.96,0 4.53,-1.01 11.05,-4.28 13.31,-8.49 2.88,-5.35 2.52,-17.61 -3.42,-20.93 -2.61,-1.46 -6.06,-1.01 -8.89,-0.63 z" />
  <path
     style="fill:#ffffff;stroke-width:0.642144"
     d="M 23.36892,265.19806 C 13.842107,262.52165 8.1657004,256.03974 3.5702315,242.58987 2.1326064,238.38227 1.8128252,236.14824 1.5618876,228.55921 1.1968564,217.52093 2.3524814,212.0558 7.1447003,202.1573 13.764419,188.48415 23.393451,175.94799 48.240545,148.65418 c 7.007688,-7.69773 11.576876,-13.75084 10.887438,-14.42331 -0.13125,-0.12797 -1.915937,-0.97291 -3.966094,-1.87766 -2.050125,-0.90473 -6.844594,-3.52304 -10.654344,-5.81845 C 25.273045,114.94572 12.600419,103.36455 7.5741066,92.782298 5.6722003,88.778113 5.5919815,88.268876 5.6014503,80.260516 5.6108253,72.288782 5.7205128,71.596141 8.0325441,64.887428 12.956482,50.600631 21.470826,36.914149 32.240514,25.973949 40.073983,18.016458 47.399514,12.637039 56.287608,8.3152452 66.12139,3.5336075 71.658609,2.144295 82.391265,1.7656856 93.329016,1.379845 98.782985,2.5865763 108.97655,7.6478952 136.08433,21.107474 184.6273,71.525619 198.36371,100.48801 c 1.59131,3.35519 3.74837,7.90638 4.79347,10.11374 1.04506,2.20737 2.10134,4.01339 2.34725,4.01339 0.24593,0 1.14475,-1.9505 1.99743,-4.33446 3.97838,-11.123051 12.48616,-25.371295 22.80163,-38.186617 22.85181,-28.389726 52.29284,-55.229668 70.67366,-64.4297303 10.26084,-5.1357908 15.60706,-6.3048752 26.93378,-5.8897096 10.87066,0.3984532 15.60847,1.6012126 25.75516,6.5383065 19.67906,9.5752594 36.65528,28.3284224 46.23812,51.0779544 3.24419,7.701594 4.77313,14.620829 4.7535,21.511776 -0.0281,9.5834 -3.0929,16.040354 -11.85415,24.96806 -8.526,8.68793 -24.61838,20.02497 -36.42041,25.65807 -3.07866,1.46944 -5.60709,2.83888 -5.61875,3.04322 -0.0634,1.10957 4.98025,7.56529 11.22794,14.37167 27.43194,29.88503 39.25275,46.28459 44.6845,61.99284 2.18875,6.32972 2.51675,20.87832 0.63819,28.307 -2.1005,8.30641 -6.3515,16.44766 -10.63013,20.35804 -4.97347,4.5455 -9.123,6.02031 -18.0085,6.40062 -11.02125,0.47169 -22.76988,-2.27937 -39.4056,-9.22719 -44.83318,-18.72434 -113.99025,-83.68716 -129.463,-121.61128 -2.21366,-5.42574 -4.93962,-10.91643 -5.41969,-10.91643 -0.20843,0 -1.04925,1.95051 -1.86872,4.33446 -3.89762,11.33859 -13.53615,27.73909 -23.68093,40.29444 -7.21782,8.9329 -20.29075,22.76016 -31.49944,33.31697 -36.34607,34.23222 -67.267255,53.95897 -96.476381,61.54894 -9.109031,2.36697 -21.849344,3.04165 -27.493719,1.45597 z m 25.567282,-12.30875 c 18.914219,-3.74197 40.284157,-16.28625 70.314628,-41.27516 10.85431,-9.03206 31.32862,-28.89981 40.73406,-39.52725 6.22928,-7.03863 24.67597,-30.05594 28.24525,-35.24374 3.32469,-4.83226 5.94441,-10.6631 6.65525,-14.81295 1.84663,-10.78058 -4.89053,-25.688184 -21.88693,-48.43015 C 148.36364,40.637546 115.07011,12.366545 94.675016,7.0921952 83.105828,4.1003044 67.952077,5.6451076 56.641921,10.969358 49.81492,14.183161 43.977951,18.888186 33.759482,29.41424 17.754169,45.901309 10.954919,57.816906 9.1178879,72.5983 7.8352628,82.918819 9.3094504,87.835326 15.683982,94.496695 c 5.721969,5.979445 14.608407,12.417465 31.967938,23.160025 8.299688,5.13608 15.776657,9.99086 16.615438,10.78841 0.838813,0.79754 1.525094,2.18174 1.525094,3.07598 0,3.09073 -1.595437,5.07679 -27.428938,34.14438 -13.921126,15.66388 -24.589126,31.11635 -28.5096261,41.29575 -2.7316251,7.09263 -3.6442501,14.18372 -2.6768751,20.79966 2.2554688,15.42522 10.1589692,24.77816 22.1738442,26.24037 4.896719,0.59597 13.389782,0.11375 19.585345,-1.11196 z m 339.451038,-1.49063 c 7.50697,-3.69187 12.31294,-11.07944 14.22482,-21.86587 1.85287,-10.45338 -0.4215,-20.39929 -7.47188,-32.67472 -6.40431,-11.1506 -13.24509,-19.79054 -35.08591,-44.31369 -6.7104,-7.5345 -12.99412,-14.88868 -13.96384,-16.34259 -2.07794,-3.11544 -2.28347,-6.15245 -0.52406,-7.74467 0.68453,-0.61948 7.61506,-5.07098 15.40119,-9.8922 7.78612,-4.82123 16.83193,-10.64413 20.10178,-12.93979 8.39919,-5.896796 16.12156,-13.447127 18.30875,-17.900843 1.61419,-3.286922 1.76722,-4.215941 1.70528,-10.353431 -0.165,-16.34932 -7.16678,-29.747745 -25.26285,-48.341908 C 364.9504,17.859664 360.84093,14.588433 352.99071,10.855945 345.45187,7.2715077 338.5228,5.8586764 328.26821,5.8150295 318.98102,5.7754982 313.69802,6.9976764 304.8013,11.243905 289.83599,18.386539 265.47774,39.011524 249.45608,58.1066 c -21.44097,25.553954 -32.95372,44.66521 -34.53612,57.33015 -0.80807,6.46753 1.82203,14.38498 7.29965,21.97445 4.8401,6.70613 22.39,28.54523 28.38144,35.31785 9.24653,10.4521 29.12894,29.72457 40.10182,38.87154 34.67243,28.9029 56.94175,40.77312 79.30462,42.27175 8.39725,0.56272 13.6406,-0.14282 18.37975,-2.47366 z"
     id="path1" />
  <path
     style="fill:#ffffff;stroke-width:0.642144"
     d="m 98.026141,104.7241 c -8.034907,-2.51662 -17.005688,-9.883624 -20.547845,-16.874359 -1.77025,-3.493778 -1.893062,-4.215828 -1.891375,-11.121006 0.0029,-11.86666 3.180282,-19.692163 9.499157,-23.39527 5.417562,-3.174903 15.124282,-1.750656 23.827812,3.49621 5.58378,3.366147 12.25466,10.724603 15.04731,16.598316 2.07632,4.367069 2.33313,5.470513 2.33754,10.043238 0.003,3.921262 -0.32504,5.854088 -1.38913,8.166275 -3.49791,7.600678 -12.87706,14.026476 -20.35381,13.944686 -2.15991,-0.0237 -5.098253,-0.40977 -6.529659,-0.85809 z M 109.4382,97.891179 c 5.54838,-1.540931 8.64985,-6.689972 8.04535,-13.356731 -0.41875,-4.61806 -1.6636,-7.096913 -5.71535,-11.381051 -5.66572,-5.990641 -15.809653,-9.001619 -21.082435,-6.257781 -3.396781,1.767634 -6.029125,7.369681 -6.075125,12.929006 -0.07937,9.582813 4.85525,15.077035 16.01803,17.834589 4.08694,1.0096 5.84306,1.05584 8.80953,0.231968 z"
     id="path2" />
  <path
     style="fill:#ffffff;stroke-width:0.642144"
     d="m 300.19762,104.69356 c -6.14594,-1.92075 -12.07841,-6.918828 -14.99266,-12.631218 -4.47994,-8.781454 -0.59213,-21.137717 9.47172,-30.102886 9.45644,-8.424091 22.48119,-12.559578 29.32625,-9.311375 6.86944,3.259753 11.16897,13.773347 10.56159,25.826101 -0.34709,6.887206 -2.32672,11.393272 -7.26187,16.529563 -8.15125,8.483495 -18.79257,12.287655 -27.10503,9.689815 z m 12.11303,-7.825318 c 4.17319,-1.307697 8.70262,-4.466457 10.67212,-7.442532 1.36422,-2.061509 1.71775,-3.476206 1.94144,-7.769253 0.33916,-6.508528 -0.58787,-10.1114 -3.38778,-13.166638 -2.13453,-2.329166 -2.21769,-2.356438 -7.18547,-2.356438 -6.15028,0 -10.70725,1.887047 -15.59297,6.457076 -4.55203,4.257881 -6.68162,8.845956 -6.33434,13.646919 0.30656,4.237206 2.0829,8.137675 4.54259,9.974091 3.14816,2.35044 9.12334,2.606194 15.34441,0.656775 z"
     id="path3" />
  <path
     style="fill:#ffffff;stroke-width:0.487019"
     d="M 26.066888,265.57299 C 23.19492,265.13328 18.619169,263.2789 16.033513,261.50684 11.063169,258.10049 6.7120753,251.27174 3.609919,242.00896 2.2478877,237.94202 2.2233564,237.67252 2.2132314,226.66787 l -0.00938,-11.20144 1.6127501,-4.62669 C 9.2707004,195.19302 18.943107,181.57668 46.02317,151.42343 c 7.871344,-8.76463 13.405407,-15.67276 13.405407,-16.73387 0,-0.33125 -2.020438,-1.57792 -4.489844,-2.77038 C 49.106764,129.10299 39.143014,123.11037 32.997951,118.72304 20.203388,109.58824 12.481482,101.63401 7.9784503,92.950754 L 6.1000128,89.328498 v -9.009854 c 0,-8.961809 0.00938,-9.035819 1.6527813,-13.880041 C 12.847263,51.42695 20.906013,38.198962 31.89392,26.81223 40.161295,18.244802 47.792514,12.665789 57.659327,7.9757514 64.33139,4.804292 69.941296,3.1215263 76.150078,2.4292044 c 12.931281,-1.44192194 21.83875,-0.01625 32.131092,5.1425345 18.74063,9.3933601 47.42785,35.3279321 69.96325,63.2500361 10.44154,12.937391 15.01122,20.024785 21.78091,33.781345 4.28194,8.70119 5.226,10.29573 5.76694,9.74038 0.35575,-0.36523 1.53991,-2.91705 2.63147,-5.67071 7.53297,-19.00318 22.52975,-39.466662 47.03,-64.17355 C 278.1034,21.658542 297.7473,7.4375514 312.3633,3.3001763 c 3.47207,-0.9828469 5.0631,-1.1239375 12.73416,-1.1292625 12.42478,-0.00875 16.99813,0.9668875 27.27306,5.8174876 18.73622,8.8450066 35.0205,25.7298416 45.09857,46.7617456 4.92237,10.272547 6.76897,17.322547 6.76897,25.842935 0,10.084735 -2.76272,16.03891 -11.60235,25.005218 -8.12244,8.23887 -22.89894,18.79977 -35.01353,25.02453 -3.53969,1.81877 -6.56303,3.51272 -6.71853,3.76433 -0.67931,1.09914 3.29294,6.2103 14.54444,18.71458 23.75922,26.40463 34.18531,40.74244 39.72559,54.63003 2.30363,5.77441 2.96653,10.07429 2.94353,19.0931 -0.0188,7.74047 -0.74762,12.35075 -2.85425,18.07822 -4.04181,10.98881 -10.67172,17.97153 -19.04462,20.05815 -3.96732,0.98869 -16.2221,0.85582 -21.42885,-0.2325 -14.0044,-2.92675 -29.65272,-9.22556 -43.95853,-17.69428 -38.68078,-22.89815 -85.81685,-68.01547 -104.97738,-100.48138 -1.50178,-2.54468 -4.00881,-7.47189 -5.57119,-10.94937 -3.96481,-8.82489 -5.36631,-11.49095 -5.94,-11.29972 -0.2725,0.0908 -1.28612,2.23022 -2.25231,4.75414 -3.62062,9.45781 -8.44244,18.42805 -15.38862,28.62827 -7.83929,11.51165 -15.20375,20.0355 -30.81257,35.66315 -32.45665,32.49588 -63.242499,54.75063 -90.462375,65.39426 -6.533876,2.55487 -15.191532,5.08568 -20.289345,5.93097 -4.517219,0.74903 -16.390688,1.30818 -19.069375,0.89806 z m 20.460595,-12.14053 c 15.354407,-2.35606 32.957657,-11.12494 54.217967,-27.00812 16.61369,-12.41179 25.30819,-19.94675 42.14722,-36.52641 13.72604,-13.5146 19.1536,-19.52763 31.16,-34.5211 15.6396,-19.53056 18.01694,-23.12306 20.29835,-30.67346 2.70366,-8.94799 -0.73103,-20.38815 -10.9765,-36.560253 C 162.44205,55.102072 125.3873,19.384842 101.64236,9.3611827 94.672641,6.418992 90.390359,5.6084232 81.830546,5.6111014 71.498546,5.6142264 63.575515,7.3269952 55.799921,11.237948 49.726327,14.292842 46.196264,17.056861 37.576233,25.507011 18.024701,44.673246 10.52395,57.347641 8.7842316,74.1584 7.1936378,89.528073 13.183513,96.285404 47.495702,117.82988 c 14.083094,8.8427 17.075719,10.96063 17.734438,12.55091 1.167343,2.81818 -0.332375,4.87597 -18.850563,25.86511 -18.248564,20.68353 -24.943657,29.24125 -31.277345,39.979 -3.574469,6.05994 -5.1042503,9.41534 -6.8851566,15.10187 -1.0071876,3.21594 -1.1409063,4.58422 -1.1185001,11.44494 0.025,7.18438 0.131875,8.11525 1.3881876,11.93197 1.9041871,5.78428 3.9881251,9.50488 7.1172501,12.70669 3.8965,3.98706 8.581125,6.11406 15.333063,6.96178 2.371188,0.29781 10.861063,-0.21406 15.590407,-0.93969 z m 326.783947,0.24094 c -6.81534,-0.33366 -15.68087,-1.741 -18.346,-2.91234 -1.03891,-0.4566 -1.01134,-0.47807 0.32631,-0.25407 0.80357,0.13469 3.54307,0.68522 6.08772,1.22353 6.14291,1.29954 15.37388,1.78616 19.67481,1.03719 3.75875,-0.65456 4.89635,-0.3874 1.67613,0.39363 l -2.11369,0.51262 2.10597,-0.24344 c 1.15828,-0.13375 3.50394,-0.87721 5.21256,-1.65196 9.38285,-4.25438 15.34366,-15.59779 15.31941,-29.15272 -0.0125,-7.15182 -1.29828,-12.30535 -5.06584,-20.3091 -5.50613,-11.69706 -12.32994,-20.76069 -35.56663,-47.24084 -17.77663,-20.25796 -17.80134,-20.2904 -17.80134,-23.35997 0,-1.48756 0.29625,-2.31429 1.09578,-3.05798 0.60268,-0.56059 7.12265,-4.83444 14.48881,-9.49744 18.55297,-11.74458 19.769,-12.54031 23.58081,-15.43059 7.62597,-5.782347 13.382,-11.779216 15.92675,-16.593163 1.0681,-2.02055 1.15757,-2.742703 1.14632,-9.253363 C 401.03431,62.633216 396.25015,51.817215 382.53256,35.98618 376.56187,29.095624 364.53762,17.558474 360.64893,14.989108 351.6059,9.0140921 341.18946,5.6824482 332.15834,5.8765264 l -3.16563,0.068031 3.89616,0.3471844 c 4.71172,0.4198594 11.10634,1.4748376 10.79947,1.7816907 -0.12219,0.122125 -2.60194,-0.1330313 -5.51075,-0.5670157 -6.81016,-1.0160437 -14.47785,-1.0175 -19.34147,-0.00375 -2.10394,0.4385657 -3.92382,0.6989063 -4.04419,0.5785376 -0.26844,-0.2685 3.44675,-1.1651782 7.3825,-1.7817876 l 2.92212,-0.4578031 -3.71321,0.2135625 C 308.40499,6.8016545 290.14974,17.881964 267.8718,38.534821 249.89849,55.197087 228.55868,82.49251 220.16518,99.555657 c -7.5176,15.282533 -7.22997,24.098733 1.19956,36.769933 3.32131,4.99257 18.58672,24.2509 27.26981,34.40271 6.20228,7.25138 22.26219,23.39269 32.42372,32.58807 26.13706,23.652 50.56838,40.15134 68.72347,46.4115 9.52444,3.28415 15.64569,4.34178 24.99075,4.31781 l 5.84422,-0.0156 z"
     id="path4" />
  <path
     style="fill:#ffffff;stroke-width:0.487019"
     d="M 96.885234,104.03073 C 89.423609,101.33305 81.00714,94.119951 77.769328,87.647951 l -1.783,-3.564022 0.0094,-6.874588 c 0.0125,-10.289153 1.553718,-16.02425 5.532718,-20.589885 2.751282,-3.156925 6.017032,-4.547913 10.677532,-4.547913 8.280602,0 15.822722,3.349194 22.918852,10.177479 4.01884,3.867144 7.04752,7.992656 9.19197,12.520791 1.49597,3.158838 1.5899,3.674456 1.5899,8.724697 0,5.0733 -0.0869,5.543953 -1.58557,8.588197 -2.04036,4.144597 -6.87175,8.782533 -11.56821,11.105043 -3.03342,1.50009 -3.90959,1.70119 -8.03154,1.84338 -3.91131,0.13494 -5.122777,-0.0197 -7.835214,-1.0004 z M 111.5342,97.199114 c 5.89157,-2.978069 7.96338,-11.389001 4.59107,-18.63806 -1.23728,-2.659566 -7.25938,-8.569951 -10.30085,-10.109738 -4.83862,-2.449631 -10.952404,-3.414491 -14.100029,-2.225238 -4.470532,1.689082 -8.046001,9.461441 -7.249157,15.758301 1.080875,8.541681 5.896313,13.26681 16.150876,15.847988 4.56272,1.148478 7.74925,0.963487 10.90809,-0.633253 z"
     id="path5" />
</svg>
